<svg width="157" height="44" viewBox="0 0 157 44" fill="none" xmlns="http://www.w3.org/2000/svg">
<path d="M5.16 43.96C3.944 43.96 2.92 43.608 2.088 42.904C1.256 42.2 0.84 41.304 0.84 40.216V18.424C0.84 17.4 1.224 16.536 1.992 15.832C2.824 15.064 3.88 14.68 5.16 14.68C6.632 14.68 7.752 15.192 8.52 16.216C8.84 16.6 9.032 16.984 9.096 17.368C9.864 16.408 10.888 15.64 12.168 15.064C13.448 14.488 14.888 14.2 16.488 14.2C20.84 14.2 23.976 15.64 25.896 18.52C27.048 17.112 28.456 16.056 30.12 15.352C31.784 14.584 33.512 14.2 35.304 14.2C38.888 14.2 41.704 15.256 43.752 17.368C45.864 19.48 46.92 22.84 46.92 27.448V40.408C46.92 41.432 46.504 42.296 45.672 43C44.904 43.64 43.912 43.96 42.696 43.96C41.48 43.96 40.456 43.608 39.624 42.904C38.856 42.2 38.472 41.304 38.472 40.216V28.504C38.472 26.136 38.056 24.44 37.224 23.416C36.392 22.392 35.208 21.88 33.672 21.88C32.136 21.88 30.888 22.36 29.928 23.32C29.032 24.216 28.424 25.304 28.104 26.584V40.408C28.104 41.432 27.688 42.296 26.856 43C26.088 43.64 25.096 43.96 23.88 43.96C22.664 43.96 21.64 43.608 20.808 42.904C20.04 42.2 19.656 41.304 19.656 40.216V28.504C19.656 26.136 19.24 24.44 18.408 23.416C17.576 22.392 16.392 21.88 14.856 21.88C13.384 21.88 12.168 22.36 11.208 23.32C10.248 24.216 9.608 25.272 9.288 26.488V40.12C9.288 41.208 8.872 42.136 8.04 42.904C7.272 43.608 6.312 43.96 5.16 43.96ZM98.0505 43.96C93.7625 43.96 90.3065 42.616 87.6825 39.928C85.1225 37.176 83.8425 33.528 83.8425 28.984C83.8425 24.44 85.0905 20.856 87.5865 18.232C90.1465 15.544 93.5385 14.2 97.7625 14.2C100.515 14.2 102.979 15.192 105.155 17.176V4.6C105.155 3.512 105.539 2.616 106.307 1.912C107.075 1.144 108.067 0.759997 109.283 0.759997C110.563 0.759997 111.587 1.144 112.355 1.912C113.187 2.616 113.603 3.48 113.603 4.504V40.216C113.603 41.304 113.187 42.2 112.355 42.904C111.587 43.608 110.563 43.96 109.283 43.96C107.235 43.96 105.923 43.064 105.347 41.272C103.363 43.064 100.931 43.96 98.0505 43.96ZM98.7225 36.184C100.643 36.184 102.179 35.512 103.331 34.168C104.547 32.76 105.155 31.032 105.155 28.984C105.155 26.872 104.547 25.176 103.331 23.896C102.179 22.616 100.643 21.976 98.7225 21.976C96.7385 21.976 95.1385 22.616 93.9225 23.896C92.7705 25.176 92.1945 26.872 92.1945 28.984C92.1945 31.032 92.7705 32.76 93.9225 34.168C95.1385 35.512 96.7385 36.184 98.7225 36.184ZM140.985 43.96C136.697 43.96 133.209 42.616 130.521 39.928C127.897 37.176 126.585 33.528 126.585 28.984C126.585 24.44 127.865 20.856 130.425 18.232C133.049 15.544 136.473 14.2 140.697 14.2C143.705 14.2 146.329 15.256 148.569 17.368C148.825 16.6 149.305 15.96 150.009 15.448C150.713 14.936 151.545 14.68 152.505 14.68C153.785 14.68 154.809 15.064 155.577 15.832C156.409 16.536 156.825 17.4 156.825 18.424V40.216C156.825 41.304 156.409 42.2 155.577 42.904C154.809 43.608 153.785 43.96 152.505 43.96C150.393 43.96 149.081 43.032 148.569 41.176C146.521 43.032 143.993 43.96 140.985 43.96ZM141.657 36.184C143.705 36.184 145.337 35.512 146.553 34.168C147.769 32.76 148.377 31.032 148.377 28.984C148.377 26.872 147.769 25.176 146.553 23.896C145.337 22.616 143.705 21.976 141.657 21.976C139.673 21.976 138.041 22.616 136.761 23.896C135.545 25.176 134.937 26.872 134.937 28.984C134.937 31.032 135.545 32.76 136.761 34.168C138.041 35.512 139.673 36.184 141.657 36.184Z" fill="#F3CB45"/>
<path d="M66.186 43.96C64.97 43.96 63.946 43.608 63.114 42.904C62.282 42.2 61.866 41.304 61.866 40.216V18.424C61.866 17.4 62.25 16.536 63.018 15.832C63.85 15.064 64.906 14.68 66.186 14.68C67.466 14.68 68.458 15.064 69.162 15.832C69.93 16.536 70.314 17.432 70.314 18.52V40.12C70.314 41.208 69.898 42.136 69.066 42.904C68.298 43.608 67.338 43.96 66.186 43.96ZM66.186 9.88C64.842 9.88 63.69 9.464 62.73 8.632C61.77 7.736 61.29 6.616 61.29 5.272C61.29 4.056 61.77 3 62.73 2.104C63.69 1.208 64.842 0.759997 66.186 0.759997C67.466 0.759997 68.554 1.208 69.45 2.104C70.41 3 70.89 4.056 70.89 5.272C70.89 6.616 70.41 7.736 69.45 8.632C68.554 9.464 67.466 9.88 66.186 9.88Z" fill="#E02D66"/>
</svg>
